[center][img]http://img593.imageshack.us/img593/8634/86616972395625463099.jpg[/img]

[img]http://leetleech.org/images/48874973695367351744.png[/img]

Format                           : AVI
Format/Info                      : Audio Video Interleave
File size                        : 984 MiB
Duration                         : 1h 25mn
Overall bit rate                 : 1 615 Kbps
Writing application              : VirtualDubMod 1.5.10.2 (build 2540/release)
Writing library                  : VirtualDub build 32839/release

Video
ID                               : 0
Format                           : MPEG-4 Visual
Format profile                   : Advanced Simple@L5
Format settings, BVOP            : Yes
Format settings, QPel            : No
Format settings, GMC             : No warppoints
Format settings, Matrix          : Custom
Codec ID                         : XVID
Codec ID/Hint                    : XviD
Duration                         : 1h 25mn
Bit rate                         : 1 445 Kbps
Width                            : 704 pixels
Height                           : 264 pixels
Display aspect ratio             : 2.667
Frame rate                       : 25.000 fps
Color space                      : YUV
Chroma subsampling               : 4:2:0
Bit depth                        : 8 bits
Scan type                        : Progressive
Bits/(Pixel*Frame)               : 0.311
Stream size                      : 880 MiB (89%)
Writing library                  : XviD 1.2.1 (UTC 2008-12-04)

Audio
ID                               : 1
Format                           : MPEG Audio
Format version                   : Version 1
Format profile                   : Layer 3
Codec ID                         : 55
Codec ID/Hint                    : MP3
Duration                         : 1h 25mn
Bit rate mode                    : Constant
Bit rate                         : 160 Kbps
Channel(s)                       : 2 channels
Sampling rate                    : 48.0 KHz
Stream size                      : 97.4 MiB (10%)
Alignment                        : Aligned on interleaves
Interleave, duration             : 40 ms (1.00 video frame)
Interleave, preload duration     : 504 ms


[url]http://www.imdb.com/title/tt0472399/[/url]

sers: 7.3/10 (1,175 votes) 21 reviews | Critics: 7 reviews Metascore: 49/100 (based on 35 reviews from Metacritic.com)

Follows an elite hit man as he teaches his trade to an apprentice who has a connection to one of his previous victims.
Director:
Simon West
Writers:
Richard Wenk (screenplay), Lewis John Carlino (screenplay), and 1 more credit »
Stars:
Jason Statham, Ben Foster and Donald Sutherland




Video Source:: ....Elektri4ka
Audio Source:: ...TOXiC - iNK


My opinion and probably everyone elses this video has been badly cropped but theres nothing anyone can do about that.Filters wise i reduced abit of red colour ,sharpened quite abit but vid is still kinda blurry ,reduced contrast a touch.Anyway its up to you apologies no sample was in abit of a hurry to get it ftp'd .......Enjoy !

[img]http://leetleech.org/images/95521316153253938506.png[/img]

[img]http://img26.imageshack.us/img26/5491/vlcsnap2011013116h07m28.png[/img]
[img]http://img715.imageshack.us/img715/971/vlcsnap2011013116h05m28.png[/img]
[img]http://img200.imageshack.us/img200/7608/vlcsnap2011013116h07m53.png[/img]


Greetz to Imagine ,Flawl3ss ,Santi ,Vision ,Kingdom,BDK,DiGiTALiNK,LEGION,Classified,THC,WBZ,Rx ,Feel Free,Mystic  and to all who share.


[img]http://img411.imageshack.us/img411/6898/sig1n.jpg[/img]
[/center]